<svg id="ejl7s65XDn91" xmlns="http://www.w3.org/2000/svg" xmlns:xlink="http://www.w3.org/1999/xlink" viewBox="0 0 360 360" shape-rendering="geometricPrecision" text-rendering="geometricPrecision"><path id="ejl7s65XDn92" d="M58.7915,71.96391C73.97933,71.96391,86.2915,84.27608,86.2915,99.46391C86.2915,101.54524,86.06028,103.57256,85.62213,105.52159C82.25998,101.0516,77.60958,97.72416,72.35413,95.96099C69.34763,94.35602,66.00799,93.29324,62.46579,92.90321C57.53647,88.22977,50.87729,85.36292,43.54851,85.36292C40.30085,85.36292,37.18468,85.92589,34.29227,86.95956C38.84484,78.05773,48.10652,71.96391,58.7915,71.96391Z" transform="matrix(3.762438 0 0 3.901178 48.737421 -143.441213)" fill="rgba(255,223,112,0)" fill-opacity="0.9" stroke="rgb(6,68,191)" stroke-width="2"/><ellipse id="ejl7s65XDn93" rx="2.5" ry="2.499987" transform="matrix(3.762438 0 0 3.901178 402.75677 354.437141)" fill="rgb(6,68,191)" stroke="none" stroke-width="0"/><path id="ejl7s65XDn94" d="M40.88983,80.72379C40.88983,69.30825,50.4569,60.05412,62.25847,60.05412C62.98557,60.05412,63.70418,60.08925,64.4126,60.15784C68.05051,50.2967,75.91258,43.47021,85.02506,43.47021C92.77594,43.47021,99.62217,48.40906,103.73376,55.95334C104.60811,55.87312,105.49551,55.83202,106.39371,55.83202C120.54155,55.83202,132.01063,66.0313,132.01063,78.61274C132.01063,91.19418,120.54154,101.39346,106.39371,101.39346C106.39222,101.39346,106.39072,101.39346,106.38923,101.39346L87.24576,101.39346C86.51508,101.48365,85.7743,101.5298,85.02507,101.5298C84.27584,101.5298,83.53505,101.48365,82.80438,101.39346L60.86053,101.39346L60.86053,101.34994C49.71056,100.65346,40.88983,91.68503,40.88983,80.7238L40.88983,80.72379Z" transform="matrix(3.430265 0 0 3.094501 -76.03589 50.005967)" fill="rgba(224,235,241,0)" stroke="rgb(6,68,191)" stroke-width="4"/><path id="ejl7s65XDn95" d="M68.41521,81.21703L68.41521,68.03512L73.09264,68.03512L73.09264,81.21703L68.41521,81.21703ZM83.38297,81.21703L83.38297,68.03512L88.0604,68.03512L88.0604,81.21703L83.38297,81.21703ZM76.31439,81.21703L76.31439,68.03512L80.16122,68.03512L80.16122,81.21703L76.31439,81.21703ZM68.41521,68.03511L68.41521,63.78297L78.23781,63.78297L78.23781,68.03511L68.41521,68.03511ZM78.2378,68.03512L78.2378,63.78298L88.0604,63.78298L88.0604,68.03512L78.2378,68.03512Z" transform="matrix(3.762438 0 0 3.901178 -128.906721 14.300761)" fill="rgb(6,68,191)" stroke="none" stroke-width="0"/><path id="ejl7s65XDn96" d="M45.96758,106.7608L45.96758,89.67973L50.63034,89.67973L50.63034,102.50866L58.12156,102.50866L58.12156,106.7608L50.63034,106.7608L50.63034,106.7608L45.96758,106.7608Z" transform="matrix(3.762438 0 0 3.901178 35.074145 -85.350032)" fill="rgb(6,68,191)" stroke="none" stroke-width="0"/><path id="ejl7s65XDn97" d="M64.28222,106.93729L64.28222,89.85622L68.94498,89.85622L68.94498,97.39543L73.57899,97.39543L73.57899,89.85622L78.24175,89.85622L78.24175,106.93729L73.57899,106.93729L73.57899,101.64757L68.94498,101.64757L68.94498,106.93729L64.28222,106.93729Z" transform="matrix(3.762438 0 0 3.901178 19.285324 -86.038551)" fill="rgb(6,68,191)" stroke="none" stroke-width="0"/><rect id="ejl7s65XDn98" width="11.42301" height="4.024119" rx="0" ry="0" transform="matrix(3.216379 1.952139 -2.024124 3.334983 151.160465 126.86984)" fill="rgba(210,219,237,0)" stroke="rgb(6,68,191)" stroke-width="2"/><rect id="ejl7s65XDn99" width="11.42301" height="4.024119" rx="0" ry="0" transform="matrix(1.899491 3.247749 -3.36751 1.969535 221.575574 81.84513)" fill="rgba(210,219,237,0)" stroke="rgb(6,68,191)" stroke-width="2"/><rect id="ejl7s65XDn910" width="11.42301" height="4.024119" rx="0" ry="0" transform="matrix(-0.340536 3.746995 -3.885166 -0.353094 306.928444 74.708863)" fill="rgba(210,219,237,0)" stroke="rgb(6,68,191)" stroke-width="2"/><rect id="ejl7s65XDn911" width="11.42301" height="4.024119" rx="0" ry="0" transform="matrix(-2.243017 3.02073 -3.13212 -2.325729 383.578984 109.616923)" fill="rgba(210,219,237,0)" stroke="rgb(6,68,191)" stroke-width="2"/><rect id="ejl7s65XDn912" width="11.42301" height="4.024119" rx="0" ry="0" transform="matrix(-3.393066 1.625744 -1.685693 -3.518185 422.33801 176.030426)" fill="rgba(210,219,237,0)" stroke="rgb(6,68,191)" stroke-width="2"/><rect id="ejl7s65XDn913" width="11.42301" height="4.024119" rx="0" ry="0" transform="matrix(-3.762437 -0.002691 0.002791 -3.901177 435.761708 245.439277)" fill="rgba(210,219,237,0)" stroke="rgb(6,68,191)" stroke-width="2"/></svg>